<mxfile host="app.diagrams.net" agent="Mozilla/5.0 (X11; Linux x86_64) AppleWebKit/537.36 (KHTML, like Gecko) Chrome/125.0.0.0 Safari/537.36" version="26.0.16">
  <diagram name="第 1 页" id="-g1_6_iq9ua20Z333EjY">
    <mxGraphModel dx="2820" dy="998" grid="1" gridSize="10" guides="1" tooltips="1" connect="1" arrows="1" fold="1" page="1" pageScale="1" pageWidth="827" pageHeight="1169" math="0" shadow="0">
      <root>
        <mxCell id="0" />
        <mxCell id="1" parent="0" />
        <mxCell id="pNmX6UvQ-UPgDXUVU1yN-1" value="" style="rounded=0;whiteSpace=wrap;html=1;fillColor=#f5f5f5;fontColor=#333333;strokeColor=#666666;sketch=1;curveFitting=1;jiggle=2;" vertex="1" parent="1">
          <mxGeometry x="140" y="100" width="70" height="70" as="geometry" />
        </mxCell>
        <mxCell id="pNmX6UvQ-UPgDXUVU1yN-2" value="" style="rounded=0;whiteSpace=wrap;html=1;fillColor=#f5f5f5;fontColor=#333333;strokeColor=#666666;sketch=1;curveFitting=1;jiggle=2;" vertex="1" parent="1">
          <mxGeometry x="150" y="110" width="70" height="70" as="geometry" />
        </mxCell>
        <mxCell id="pNmX6UvQ-UPgDXUVU1yN-3" value="文档screenshot" style="rounded=0;whiteSpace=wrap;html=1;fillColor=#f5f5f5;fontColor=#333333;strokeColor=#666666;sketch=1;curveFitting=1;jiggle=2;" vertex="1" parent="1">
          <mxGeometry x="160" y="120" width="70" height="70" as="geometry" />
        </mxCell>
        <mxCell id="pNmX6UvQ-UPgDXUVU1yN-4" value="embeddings" style="rounded=1;whiteSpace=wrap;html=1;fillColor=#dae8fc;strokeColor=#6c8ebf;sketch=1;curveFitting=1;jiggle=2;" vertex="1" parent="1">
          <mxGeometry x="330" y="90" width="80" height="20" as="geometry" />
        </mxCell>
        <mxCell id="pNmX6UvQ-UPgDXUVU1yN-8" value="embeddings" style="rounded=1;whiteSpace=wrap;html=1;fillColor=#dae8fc;strokeColor=#6c8ebf;sketch=1;curveFitting=1;jiggle=2;" vertex="1" parent="1">
          <mxGeometry x="330" y="150" width="80" height="20" as="geometry" />
        </mxCell>
        <mxCell id="pNmX6UvQ-UPgDXUVU1yN-9" value="embeddings" style="rounded=1;whiteSpace=wrap;html=1;fillColor=#dae8fc;strokeColor=#6c8ebf;sketch=1;curveFitting=1;jiggle=2;" vertex="1" parent="1">
          <mxGeometry x="330" y="180" width="80" height="20" as="geometry" />
        </mxCell>
        <mxCell id="pNmX6UvQ-UPgDXUVU1yN-11" value="" style="endArrow=none;dashed=1;html=1;dashPattern=1 3;strokeWidth=2;rounded=0;" edge="1" parent="1">
          <mxGeometry width="50" height="50" relative="1" as="geometry">
            <mxPoint x="369" y="140" as="sourcePoint" />
            <mxPoint x="369" y="120" as="targetPoint" />
          </mxGeometry>
        </mxCell>
        <mxCell id="pNmX6UvQ-UPgDXUVU1yN-12" value="&lt;b&gt;（1）文档图片嵌入&lt;/b&gt;" style="text;html=1;align=center;verticalAlign=middle;whiteSpace=wrap;rounded=0;" vertex="1" parent="1">
          <mxGeometry x="-60" y="120" width="170" height="30" as="geometry" />
        </mxCell>
        <mxCell id="pNmX6UvQ-UPgDXUVU1yN-18" style="rounded=0;orthogonalLoop=1;jettySize=auto;html=1;exitX=0.5;exitY=1;exitDx=0;exitDy=0;endArrow=none;startFill=0;" edge="1" parent="1" source="pNmX6UvQ-UPgDXUVU1yN-13" target="pNmX6UvQ-UPgDXUVU1yN-14">
          <mxGeometry relative="1" as="geometry" />
        </mxCell>
        <mxCell id="pNmX6UvQ-UPgDXUVU1yN-19" style="rounded=0;orthogonalLoop=1;jettySize=auto;html=1;exitX=0.5;exitY=1;exitDx=0;exitDy=0;entryX=0.5;entryY=0;entryDx=0;entryDy=0;endArrow=none;startFill=0;" edge="1" parent="1" source="pNmX6UvQ-UPgDXUVU1yN-13" target="pNmX6UvQ-UPgDXUVU1yN-15">
          <mxGeometry relative="1" as="geometry" />
        </mxCell>
        <mxCell id="pNmX6UvQ-UPgDXUVU1yN-13" value="embeddings" style="rounded=1;whiteSpace=wrap;html=1;fillColor=#dae8fc;strokeColor=#6c8ebf;sketch=1;curveFitting=1;jiggle=2;" vertex="1" parent="1">
          <mxGeometry x="150" y="260" width="80" height="20" as="geometry" />
        </mxCell>
        <mxCell id="pNmX6UvQ-UPgDXUVU1yN-14" value="" style="rounded=1;whiteSpace=wrap;html=1;fillColor=#e1d5e7;strokeColor=#9673a6;sketch=1;curveFitting=1;jiggle=2;" vertex="1" parent="1">
          <mxGeometry x="140" y="380" width="80" height="20" as="geometry" />
        </mxCell>
        <mxCell id="pNmX6UvQ-UPgDXUVU1yN-15" value="" style="rounded=1;whiteSpace=wrap;html=1;fillColor=#d5e8d4;strokeColor=#82b366;sketch=1;curveFitting=1;jiggle=2;" vertex="1" parent="1">
          <mxGeometry x="220" y="310" width="80" height="20" as="geometry" />
        </mxCell>
        <mxCell id="pNmX6UvQ-UPgDXUVU1yN-21" style="rounded=0;orthogonalLoop=1;jettySize=auto;html=1;exitX=0.5;exitY=0;exitDx=0;exitDy=0;endArrow=none;startFill=0;" edge="1" parent="1" source="pNmX6UvQ-UPgDXUVU1yN-16" target="pNmX6UvQ-UPgDXUVU1yN-15">
          <mxGeometry relative="1" as="geometry" />
        </mxCell>
        <mxCell id="pNmX6UvQ-UPgDXUVU1yN-22" style="rounded=0;orthogonalLoop=1;jettySize=auto;html=1;exitX=1;exitY=0.75;exitDx=0;exitDy=0;entryX=0.5;entryY=1;entryDx=0;entryDy=0;endArrow=none;startFill=0;" edge="1" parent="1" source="pNmX6UvQ-UPgDXUVU1yN-16" target="pNmX6UvQ-UPgDXUVU1yN-17">
          <mxGeometry relative="1" as="geometry" />
        </mxCell>
        <mxCell id="pNmX6UvQ-UPgDXUVU1yN-16" value="" style="rounded=1;whiteSpace=wrap;html=1;fillColor=#ffe6cc;strokeColor=#d79b00;sketch=1;curveFitting=1;jiggle=2;" vertex="1" parent="1">
          <mxGeometry x="234" y="400" width="80" height="20" as="geometry" />
        </mxCell>
        <mxCell id="pNmX6UvQ-UPgDXUVU1yN-20" style="rounded=0;orthogonalLoop=1;jettySize=auto;html=1;exitX=0.5;exitY=1;exitDx=0;exitDy=0;endArrow=none;startFill=0;" edge="1" parent="1" source="pNmX6UvQ-UPgDXUVU1yN-17">
          <mxGeometry relative="1" as="geometry">
            <mxPoint x="260" y="310" as="targetPoint" />
          </mxGeometry>
        </mxCell>
        <mxCell id="pNmX6UvQ-UPgDXUVU1yN-17" value="" style="rounded=1;whiteSpace=wrap;html=1;fillColor=#fff2cc;strokeColor=#d6b656;sketch=1;curveFitting=1;jiggle=2;" vertex="1" parent="1">
          <mxGeometry x="314" y="260" width="80" height="20" as="geometry" />
        </mxCell>
        <mxCell id="pNmX6UvQ-UPgDXUVU1yN-23" value="&lt;b&gt;（2）构建文档关系图&lt;/b&gt;" style="text;html=1;align=center;verticalAlign=middle;whiteSpace=wrap;rounded=0;" vertex="1" parent="1">
          <mxGeometry x="-40" y="300" width="140" height="30" as="geometry" />
        </mxCell>
        <mxCell id="pNmX6UvQ-UPgDXUVU1yN-24" value="多模态大模型(GPT-4o)" style="rounded=1;whiteSpace=wrap;html=1;fillColor=#dae8fc;strokeColor=#6c8ebf;sketch=1;curveFitting=1;jiggle=2;" vertex="1" parent="1">
          <mxGeometry x="510" y="565" width="150" height="60" as="geometry" />
        </mxCell>
        <mxCell id="pNmX6UvQ-UPgDXUVU1yN-25" value="" style="shape=flexArrow;endArrow=classic;html=1;rounded=0;" edge="1" parent="1">
          <mxGeometry width="50" height="50" relative="1" as="geometry">
            <mxPoint x="250" y="144.5" as="sourcePoint" />
            <mxPoint x="310" y="144.5" as="targetPoint" />
          </mxGeometry>
        </mxCell>
        <mxCell id="pNmX6UvQ-UPgDXUVU1yN-26" value="" style="shape=flexArrow;endArrow=classic;html=1;rounded=0;" edge="1" parent="1">
          <mxGeometry width="50" height="50" relative="1" as="geometry">
            <mxPoint x="400" y="594.5" as="sourcePoint" />
            <mxPoint x="490" y="595" as="targetPoint" />
          </mxGeometry>
        </mxCell>
        <mxCell id="pNmX6UvQ-UPgDXUVU1yN-27" value="" style="shape=flexArrow;endArrow=classic;html=1;rounded=0;entryX=0.356;entryY=0.011;entryDx=0;entryDy=0;entryPerimeter=0;" edge="1" parent="1">
          <mxGeometry width="50" height="50" relative="1" as="geometry">
            <mxPoint x="571" y="485" as="sourcePoint" />
            <mxPoint x="571.4000000000001" y="555.66" as="targetPoint" />
            <Array as="points">
              <mxPoint x="571" y="505" />
            </Array>
          </mxGeometry>
        </mxCell>
        <mxCell id="pNmX6UvQ-UPgDXUVU1yN-29" value="任务指令" style="text;html=1;align=center;verticalAlign=middle;whiteSpace=wrap;rounded=0;" vertex="1" parent="1">
          <mxGeometry x="540" y="450" width="60" height="30" as="geometry" />
        </mxCell>
        <mxCell id="pNmX6UvQ-UPgDXUVU1yN-30" value="(问题，答案)对" style="text;html=1;align=center;verticalAlign=middle;whiteSpace=wrap;rounded=0;" vertex="1" parent="1">
          <mxGeometry x="720" y="580" width="100" height="30" as="geometry" />
        </mxCell>
        <mxCell id="pNmX6UvQ-UPgDXUVU1yN-32" value="&lt;b&gt;(3)大模型数据合成&lt;/b&gt;" style="text;html=1;align=center;verticalAlign=middle;whiteSpace=wrap;rounded=0;" vertex="1" parent="1">
          <mxGeometry x="510" y="420" width="130" height="30" as="geometry" />
        </mxCell>
        <mxCell id="pNmX6UvQ-UPgDXUVU1yN-33" value="" style="shape=flexArrow;endArrow=classic;html=1;rounded=0;" edge="1" parent="1">
          <mxGeometry width="50" height="50" relative="1" as="geometry">
            <mxPoint x="674" y="597" as="sourcePoint" />
            <mxPoint x="714" y="597" as="targetPoint" />
          </mxGeometry>
        </mxCell>
        <mxCell id="pNmX6UvQ-UPgDXUVU1yN-34" value="&lt;b&gt;&lt;font style=&quot;font-size: 18px;&quot;&gt;复杂VQA数据合成路线&lt;/font&gt;&lt;/b&gt;" style="text;html=1;align=center;verticalAlign=middle;whiteSpace=wrap;rounded=0;" vertex="1" parent="1">
          <mxGeometry x="267" width="206" height="70" as="geometry" />
        </mxCell>
        <mxCell id="pNmX6UvQ-UPgDXUVU1yN-36" style="rounded=0;orthogonalLoop=1;jettySize=auto;html=1;exitX=0.5;exitY=1;exitDx=0;exitDy=0;endArrow=none;startFill=0;" edge="1" parent="1" source="pNmX6UvQ-UPgDXUVU1yN-38" target="pNmX6UvQ-UPgDXUVU1yN-39">
          <mxGeometry relative="1" as="geometry" />
        </mxCell>
        <mxCell id="pNmX6UvQ-UPgDXUVU1yN-37" style="rounded=0;orthogonalLoop=1;jettySize=auto;html=1;exitX=0.5;exitY=1;exitDx=0;exitDy=0;entryX=0.5;entryY=0;entryDx=0;entryDy=0;endArrow=none;startFill=0;" edge="1" parent="1" source="pNmX6UvQ-UPgDXUVU1yN-38" target="pNmX6UvQ-UPgDXUVU1yN-40">
          <mxGeometry relative="1" as="geometry" />
        </mxCell>
        <mxCell id="pNmX6UvQ-UPgDXUVU1yN-38" value="文档screenshot" style="rounded=1;whiteSpace=wrap;html=1;fillColor=#dae8fc;strokeColor=#6c8ebf;sketch=1;curveFitting=1;jiggle=2;" vertex="1" parent="1">
          <mxGeometry x="147" y="500" width="83" height="50" as="geometry" />
        </mxCell>
        <mxCell id="pNmX6UvQ-UPgDXUVU1yN-39" value="" style="rounded=1;whiteSpace=wrap;html=1;fillColor=#e1d5e7;strokeColor=#9673a6;sketch=1;curveFitting=1;jiggle=2;" vertex="1" parent="1">
          <mxGeometry x="140" y="650" width="77" height="40" as="geometry" />
        </mxCell>
        <mxCell id="pNmX6UvQ-UPgDXUVU1yN-40" value="" style="rounded=1;whiteSpace=wrap;html=1;fillColor=#d5e8d4;strokeColor=#82b366;sketch=1;curveFitting=1;jiggle=2;" vertex="1" parent="1">
          <mxGeometry x="217" y="580" width="73" height="50" as="geometry" />
        </mxCell>
        <mxCell id="pNmX6UvQ-UPgDXUVU1yN-41" style="rounded=0;orthogonalLoop=1;jettySize=auto;html=1;exitX=0.5;exitY=0;exitDx=0;exitDy=0;endArrow=none;startFill=0;" edge="1" parent="1" source="pNmX6UvQ-UPgDXUVU1yN-43" target="pNmX6UvQ-UPgDXUVU1yN-40">
          <mxGeometry relative="1" as="geometry" />
        </mxCell>
        <mxCell id="pNmX6UvQ-UPgDXUVU1yN-42" style="rounded=0;orthogonalLoop=1;jettySize=auto;html=1;exitX=1;exitY=0.75;exitDx=0;exitDy=0;entryX=0.5;entryY=1;entryDx=0;entryDy=0;endArrow=none;startFill=0;" edge="1" parent="1" source="pNmX6UvQ-UPgDXUVU1yN-43" target="pNmX6UvQ-UPgDXUVU1yN-45">
          <mxGeometry relative="1" as="geometry" />
        </mxCell>
        <mxCell id="pNmX6UvQ-UPgDXUVU1yN-43" value="" style="rounded=1;whiteSpace=wrap;html=1;fillColor=#ffe6cc;strokeColor=#d79b00;sketch=1;curveFitting=1;jiggle=2;" vertex="1" parent="1">
          <mxGeometry x="231" y="670" width="99" height="40" as="geometry" />
        </mxCell>
        <mxCell id="pNmX6UvQ-UPgDXUVU1yN-44" style="rounded=0;orthogonalLoop=1;jettySize=auto;html=1;exitX=0.5;exitY=1;exitDx=0;exitDy=0;endArrow=none;startFill=0;" edge="1" parent="1" source="pNmX6UvQ-UPgDXUVU1yN-45">
          <mxGeometry relative="1" as="geometry">
            <mxPoint x="257" y="580" as="targetPoint" />
          </mxGeometry>
        </mxCell>
        <mxCell id="pNmX6UvQ-UPgDXUVU1yN-45" value="" style="rounded=1;whiteSpace=wrap;html=1;fillColor=#fff2cc;strokeColor=#d6b656;sketch=1;curveFitting=1;jiggle=2;" vertex="1" parent="1">
          <mxGeometry x="311" y="500" width="69" height="40" as="geometry" />
        </mxCell>
        <mxCell id="pNmX6UvQ-UPgDXUVU1yN-48" value="" style="shape=flexArrow;endArrow=classic;html=1;rounded=0;" edge="1" parent="1">
          <mxGeometry width="50" height="50" relative="1" as="geometry">
            <mxPoint x="267" y="440" as="sourcePoint" />
            <mxPoint x="267" y="500" as="targetPoint" />
          </mxGeometry>
        </mxCell>
      </root>
    </mxGraphModel>
  </diagram>
</mxfile>
